<?xml version="1.0" standalone="no"?><!DOCTYPE svg PUBLIC "-//W3C//DTD SVG 1.1//EN" "http://www.w3.org/Graphics/SVG/1.1/DTD/svg11.dtd"><svg t="1535941190313" class="icon" style="" viewBox="0 0 1024 1024" version="1.1" xmlns="http://www.w3.org/2000/svg" p-id="5559" xmlns:xlink="http://www.w3.org/1999/xlink" width="200" height="200"><defs><style type="text/css"></style></defs><path d="M734.608696 111.304348H289.391304c-48.973913 0-89.043478 40.069565-89.043478 89.043478v601.043478c0 48.973913 40.069565 89.043478 89.043478 89.043479h445.217392c48.973913 0 89.043478-40.069565 89.043478-89.043479V200.347826c0-48.973913-40.069565-89.043478-89.043478-89.043478zM500.869565 712.347826h-133.565217c-17.808696 0-33.391304-15.582609-33.391305-33.391304s15.582609-33.391304 33.391305-33.391305h133.565217c17.808696 0 33.391304 15.582609 33.391305 33.391305s-15.582609 33.391304-33.391305 33.391304z m155.826087-178.086956h-289.391304c-17.808696 0-33.391304-15.582609-33.391305-33.391305s15.582609-33.391304 33.391305-33.391304h289.391304c17.808696 0 33.391304 15.582609 33.391305 33.391304s-15.582609 33.391304-33.391305 33.391305z m0-178.086957h-289.391304c-17.808696 0-33.391304-15.582609-33.391305-33.391304s15.582609-33.391304 33.391305-33.391305h289.391304c17.808696 0 33.391304 15.582609 33.391305 33.391305s-15.582609 33.391304-33.391305 33.391304z" p-id="5560"></path></svg>