<?xml version="1.0" standalone="no"?><!DOCTYPE svg PUBLIC "-//W3C//DTD SVG 1.1//EN" "http://www.w3.org/Graphics/SVG/1.1/DTD/svg11.dtd"><svg t="1535944674406" class="icon" style="" viewBox="0 0 1024 1024" version="1.1" xmlns="http://www.w3.org/2000/svg" p-id="1942" xmlns:xlink="http://www.w3.org/1999/xlink" width="200" height="200"><defs><style type="text/css"></style></defs><path d="M868.158652 240.678548c2.204202 4.958942 3.993964 10.746762 5.371334 17.361413 1.37737 6.615675 2.064009 13.509688 2.064009 20.668739 0 7.164167-1.373277 14.337543-4.126994 21.522176-2.753717 7.18054-7.16519 14.069437-13.234419 20.668739-6.614651 6.614651-12.543687 12.402471-17.785062 17.361413-5.237281 4.958942-9.794064 9.368368-13.653975 13.234419-4.414543 4.409426-8.549723 8.275477-12.414751 11.590989L659.707087 208.414727c6.614651-6.070252 14.473643-13.374612 23.580045-21.913079 9.103332-8.541537 16.682961-15.298428 22.733771-20.272719 7.729032-6.071276 15.722076-10.342556 23.980157-12.81077 8.258081-2.472308 16.391319-3.574409 24.399713-3.307326 8.012488 0.26299 15.730263 1.506307 23.161512 3.730974 7.426133 2.220574 13.904685 4.701069 19.425422 7.43432 11.573593 6.070252 24.39255 16.682961 38.458917 31.840172 14.062274 15.156188 24.946159 31.011294 32.659841 47.561225L868.158652 240.677525zM223.850278 644.296095c3.315512-3.315512 11.036357-11.174504 23.156396-23.581068 12.124132-12.402471 27.288506-27.699875 45.49824-45.89426l305.189817-305.185724L752.36644 425.125397 574.534242 602.957595l-66.166979 66.986647c-22.054295 21.509896-41.903366 41.216727-59.548234 59.128679-17.647939 17.906835-32.255635 32.659841-43.829228 44.248783-11.574616 11.595083-18.464537 18.210757-20.672832 19.850094-5.520737 4.958942-11.865235 10.201339-19.030425 15.722076-7.15905 5.523807-14.607696 9.934257-22.336728 13.233396-7.730055 3.866051-19.029402 8.549723-33.903158 14.054087-14.873756 5.504364-30.454616 10.875698-46.741557 16.118096-16.282848 5.241374-31.722492 9.794064-46.313815 13.658068-14.595416 3.865028-25.478278 6.340405-32.663934 7.43432-14.890128 1.660826-24.817222-0.544399-29.772071-6.614651-4.957919-6.070252-6.335289-16.266475-4.131087-30.595832 1.111311-7.729032 3.731998-18.896372 7.863085-33.507138 4.126994-14.611789 8.537444-29.776164 13.230326-45.49824 4.696975-15.717983 9.247618-30.195719 13.658068-43.430138 4.409426-13.233396 7.992021-22.328541 10.745738-27.287483 3.315512-7.725962 7.039323-14.760169 11.166317-21.092387 4.131087-6.332219 10.0591-13.367449 17.785062-21.093411L223.850278 644.296095zM223.850278 644.296095" p-id="1943"></path><path d="M519.750521 825.194118m-45.385677 0a44.352 44.352 0 1 0 90.771353 0 44.352 44.352 0 1 0-90.771353 0Z" p-id="1944"></path><path d="M650.643664 825.194118m-45.385677 0a44.352 44.352 0 1 0 90.771353 0 44.352 44.352 0 1 0-90.771353 0Z" p-id="1945"></path><path d="M781.537829 825.194118m-45.385677 0a44.352 44.352 0 1 0 90.771353 0 44.352 44.352 0 1 0-90.771353 0Z" p-id="1946"></path></svg>