<?xml version="1.0" standalone="no"?><!DOCTYPE svg PUBLIC "-//W3C//DTD SVG 1.1//EN" "http://www.w3.org/Graphics/SVG/1.1/DTD/svg11.dtd"><svg t="1535941210799" class="icon" style="" viewBox="0 0 1024 1024" version="1.1" xmlns="http://www.w3.org/2000/svg" p-id="5668" xmlns:xlink="http://www.w3.org/1999/xlink" width="200" height="200"><defs><style type="text/css"></style></defs><path d="M512 47.786667C252.586667 47.786667 42.666667 257.706667 42.666667 517.12s209.92 469.333333 469.333333 469.333333S981.333333 774.826667 981.333333 517.12c0-259.413333-209.92-469.333333-469.333333-469.333333z m102.4 312.32C612.693333 341.333333 622.933333 322.56 640 314.026667c17.066667-10.24 37.546667-10.24 52.906667 0 17.066667 10.24 25.6 27.306667 25.6 46.08v68.266666c0 29.013333-22.186667 51.2-51.2 51.2s-51.2-23.893333-51.2-51.2l-1.706667-68.266666z m-308.906667 0c-1.706667-18.773333 8.533333-37.546667 25.6-46.08 17.066667-10.24 37.546667-10.24 52.906667 0C401.066667 324.266667 409.6 341.333333 409.6 360.106667v68.266666c0 29.013333-22.186667 51.2-51.2 51.2s-51.2-23.893333-51.2-51.2l-1.706667-68.266666z m450.56 274.773333c-58.026667 76.8-148.48 121.173333-244.053333 121.173333s-184.32-42.666667-242.346667-117.76c-10.24-15.36-6.826667-34.133333 6.826667-46.08s34.133333-10.24 46.08 3.413334c46.08 58.026667 116.053333 92.16 189.44 92.16s143.36-34.133333 189.44-93.866667c11.946667-15.36 32.426667-17.066667 47.786667-6.826667 15.36 11.946667 18.773333 32.426667 6.826666 47.786667z" p-id="5669"></path></svg>